<svg xmlns="http://www.w3.org/2000/svg" width="40" height="40" viewBox="0 0 40 40"><path d="M12.479 10.379l-.031.024c-.138.606-.654 1.068-1.303 1.069l-.001.001h-3.316l-.002-.001c-.649-.001-1.166-.463-1.303-1.069l-.031-.024c-.251-1.309-.423-2.788-.492-4.379h6.971c-.067 1.591-.241 3.07-.492 4.379zm10.515 0l-.03.024c-.139.606-.655 1.068-1.304 1.069l-.002.001h-3.316l-.002-.001c-.647-.001-1.166-.463-1.303-1.069l-.03-.024c-.252-1.309-.424-2.788-.492-4.379h6.969c-.066 1.591-.24 3.07-.49 4.379zm10.514 0l-.029.024c-.139.606-.654 1.068-1.305 1.069v.001h-3.318v-.001c-.649-.001-1.166-.463-1.305-1.069l-.029-.024c-.252-1.309-.424-2.788-.493-4.379h6.971c-.068 1.591-.242 3.07-.492 4.379zm-21.029 11.262l-.031.025c-.138.607-.654 1.068-1.303 1.07h-3.319c-.649-.002-1.166-.463-1.303-1.07l-.031-.025c-.251-1.308-.423-2.787-.492-4.377h6.971c-.067 1.59-.241 3.069-.492 4.377zm10.515 0l-.03.025c-.139.607-.655 1.068-1.304 1.07h-3.32c-.647-.002-1.166-.463-1.303-1.07l-.03-.025c-.251-1.308-.424-2.787-.491-4.376h6.97c-.068 1.589-.242 3.068-.492 4.376zm10.514 0l-.029.025c-.139.607-.654 1.068-1.305 1.07h-3.318c-.649-.002-1.166-.463-1.305-1.07l-.029-.025c-.252-1.308-.424-2.787-.492-4.376h6.97c-.068 1.589-.242 3.068-.492 4.376zm-21.029 11.263l-.031.025c-.138.604-.654 1.067-1.303 1.067v.004h-3.317l-.002-.002c-.649 0-1.166-.463-1.303-1.068l-.031-.025c-.251-1.309-.423-2.789-.492-4.38h6.971c-.067 1.591-.241 3.071-.492 4.379zm10.515 0l-.03.025c-.139.604-.655 1.067-1.304 1.067l-.002.004h-3.316l-.002-.002c-.647 0-1.166-.463-1.303-1.068l-.03-.025c-.251-1.309-.424-2.787-.491-4.377h6.97c-.068 1.588-.242 3.068-.492 4.376zm10.514 0l-.029.025c-.139.604-.654 1.067-1.305 1.067v.004h-3.318v-.002c-.649 0-1.166-.463-1.305-1.068l-.029-.025c-.252-1.309-.424-2.787-.492-4.377h6.97c-.068 1.588-.242 3.068-.492 4.376z" fill="#575757"/></svg>