<svg xmlns="http://www.w3.org/2000/svg" width="40" height="40" viewBox="0 0 40 40"><path fill="#575757" d="M34.354 30.045c-1.404 1.211-2.928 2.207-4.529 2.955-4.26-.787-9.716-3.955-14.616-8.855-4.897-4.897-8.063-10.351-8.854-14.607.749-1.607 1.744-3.131 2.958-4.538l5.898 6.661c-.506.696-.978 1.399-1.37 2.11l.026.027c-.691 1.514.906 4.812 3.894 7.8 2.988 2.989 6.286 4.588 7.8 3.896l.026.024c.711-.393 1.413-.865 2.108-1.371l6.659 5.898zm-6.354-17.161c-.631.155-1.371.153-2-.001v-2.883h-2.885c-.154-.63-.154-1.371 0-2h2.885v-2.884c.629-.154 1.369-.155 2 0v2.884h2.883c.154.629.156 1.37.001 2h-2.884v2.884z"/></svg>