<svg xmlns="http://www.w3.org/2000/svg" width="40" height="40" viewBox="0 0 40 40"><path fill="#575757" d="M34 5.214l-26.714 25.878c-.91-.58-1.688-1.334-2.286-2.215l5.451-5.279-.016-.166v-8.056c.664-.484 1.366-.921 2.107-1.296v7.49l1.848-1.791v-11.283c0-2.759 2.31-4.997 5.159-4.997 2.85 0 5.159 2.238 5.159 4.997v1.289l7.005-6.785c.908.579 1.687 1.333 2.287 2.214zm-19.231 19.927l9.939-9.628v7.77c0 2.76-2.31 4.995-5.159 4.995-2.169-.001-4.017-1.299-4.78-3.137zm4.78 5.075c3.87 0 7.008-3.038 7.008-6.786l-.002-.003h.002v-9.347c.74.375 1.44.812 2.106 1.296v8.056c0 4.155-2.97 7.633-6.961 8.569v4.01h3.18v.989h-10.669v-.989h3.197v-4.005c-2.377-.555-4.374-2.021-5.618-3.982l1.551-1.504c1.165 2.185 3.493 3.696 6.206 3.696z"/></svg>