<svg xmlns="http://www.w3.org/2000/svg" width="40" height="40" viewBox="0 0 40 40"><path fill="#575757" d="M34.266 29.114l-1.297-.831c.98-2.579 1.521-5.37 1.521-8.284s-.541-5.705-1.521-8.284l1.297-.831c1.119 2.826 1.734 5.9 1.734 9.115s-.615 6.289-1.734 9.115zm-5.909-3.787c.518-1.688.799-3.476.799-5.328 0-1.853-.281-3.641-.799-5.328l.959-.614c.606 1.874.94 3.87.94 5.942 0 2.071-.334 4.067-.94 5.942l-.959-.614zm-4.111-2.636c.176-.871.268-1.771.268-2.692 0-.921-.092-1.821-.268-2.692l.596-.382c.217.991.334 2.02.334 3.074 0 1.054-.117 2.083-.334 3.074l-.596-.382zm-13.776 4.263h-4.408c-1.138 0-2.062-.906-2.062-2.024v-9.864c0-1.118.924-2.025 2.062-2.025h4.415l7.025-6.897c.778-.765 1.478-1.145 2.498-1.144v30c-1.02.002-1.72-.379-2.498-1.143l-7.032-6.903z"/></svg>